<svg xmlns="http://www.w3.org/2000/svg" viewBox="0 0 90 60"><path fill="#ff9933" d="M0 0h90v20H0z"/><path fill="#fcfdff" d="M0 20h90v20H0z"/><path fill="#006a4e" d="M0 40h90v20H0z"/><circle cx="45" cy="30" r="8.3" fill="none" stroke="#0038a8" stroke-width="1"/><path d="M45 30 53.00 30.00" stroke="#0038a8" stroke-width=".4"/><path d="M45 30 52.73 32.07" stroke="#0038a8" stroke-width=".4"/><path d="M45 30 51.93 34.00" stroke="#0038a8" stroke-width=".4"/><path d="M45 30 50.66 35.66" stroke="#0038a8" stroke-width=".4"/><path d="M45 30 49.00 36.93" stroke="#0038a8" stroke-width=".4"/><path d="M45 30 47.07 37.73" stroke="#0038a8" stroke-width=".4"/><path d="M45 30 45.00 38.00" stroke="#0038a8" stroke-width=".4"/><path d="M45 30 42.93 37.73" stroke="#0038a8" stroke-width=".4"/><path d="M45 30 41.00 36.93" stroke="#0038a8" stroke-width=".4"/><path d="M45 30 39.34 35.66" stroke="#0038a8" stroke-width=".4"/><path d="M45 30 38.07 34.00" stroke="#0038a8" stroke-width=".4"/><path d="M45 30 37.27 32.07" stroke="#0038a8" stroke-width=".4"/><path d="M45 30 37.00 30.00" stroke="#0038a8" stroke-width=".4"/><path d="M45 30 37.27 27.93" stroke="#0038a8" stroke-width=".4"/><path d="M45 30 38.07 26.00" stroke="#0038a8" stroke-width=".4"/><path d="M45 30 39.34 24.34" stroke="#0038a8" stroke-width=".4"/><path d="M45 30 41.00 23.07" stroke="#0038a8" stroke-width=".4"/><path d="M45 30 42.93 22.27" stroke="#0038a8" stroke-width=".4"/><path d="M45 30 45.00 22.00" stroke="#0038a8" stroke-width=".4"/><path d="M45 30 47.07 22.27" stroke="#0038a8" stroke-width=".4"/><path d="M45 30 49.00 23.07" stroke="#0038a8" stroke-width=".4"/><path d="M45 30 50.66 24.34" stroke="#0038a8" stroke-width=".4"/><path d="M45 30 51.93 26.00" stroke="#0038a8" stroke-width=".4"/><path d="M45 30 52.73 27.93" stroke="#0038a8" stroke-width=".4"/><circle cx="45" cy="30" r="1.4" fill="#0038a8"/></svg>